<svg xmlns="http://www.w3.org/2000/svg" viewBox="0 0 23 23"><defs><style>.cls-1{isolation:isolate;}.cls-2{fill:#fff;opacity:0.58;mix-blend-mode:screen;}</style></defs><title>Typefi_brackets</title><g class="cls-1"><g id="Layer_1" data-name="Layer 1"><path class="cls-2" d="M12,0.5A11.5,11.5,0,1,0,23.5,12,11.5,11.5,0,0,0,12,.5ZM18,10a1.5,1.5,0,0,1-1.41-1H13.41a1.49,1.49,0,0,1-.91.91v7.18a1.5,1.5,0,1,1-1,0V9.91A1.49,1.49,0,0,1,10.59,9H7.41a1.5,1.5,0,1,1,0-1h3.18a1.49,1.49,0,0,1,2.82,0h3.18A1.5,1.5,0,1,1,18,10Z" transform="translate(-0.5 -0.5)"/></g></g></svg>